<mxfile host="app.diagrams.net" modified="2022-05-13T08:49:38.131Z" agent="5.0 (Windows NT 10.0; Win64; x64) AppleWebKit/537.36 (KHTML, like Gecko) Chrome/101.0.4951.54 Safari/537.36" etag="Qc2fL7_GNhxrNNUKvg3L" version="18.0.3" type="github">
  <diagram id="LHZbrB5WG_g2RdQAcDtQ" name="Page-1">
    <mxGraphModel dx="2125" dy="1773" grid="1" gridSize="10" guides="1" tooltips="1" connect="1" arrows="1" fold="1" page="1" pageScale="1" pageWidth="827" pageHeight="1169" math="0" shadow="0">
      <root>
        <mxCell id="0" />
        <mxCell id="1" parent="0" />
        <mxCell id="lZX6NhO8SXO_a_IkvFC9-134" style="edgeStyle=orthogonalEdgeStyle;rounded=0;orthogonalLoop=1;jettySize=auto;html=1;exitX=0;exitY=0.5;exitDx=0;exitDy=0;entryX=0;entryY=0.75;entryDx=0;entryDy=0;fontFamily=宋体;" edge="1" parent="1" source="lZX6NhO8SXO_a_IkvFC9-8" target="lZX6NhO8SXO_a_IkvFC9-100">
          <mxGeometry relative="1" as="geometry">
            <Array as="points">
              <mxPoint x="-50" y="430" />
              <mxPoint x="-50" y="-10" />
            </Array>
          </mxGeometry>
        </mxCell>
        <mxCell id="lZX6NhO8SXO_a_IkvFC9-135" value="返回查询信息" style="edgeLabel;html=1;align=center;verticalAlign=middle;resizable=0;points=[];fontFamily=宋体;" vertex="1" connectable="0" parent="lZX6NhO8SXO_a_IkvFC9-134">
          <mxGeometry x="-0.1325" y="5" relative="1" as="geometry">
            <mxPoint y="-1" as="offset" />
          </mxGeometry>
        </mxCell>
        <mxCell id="lZX6NhO8SXO_a_IkvFC9-8" value="区块链层" style="swimlane;startSize=20;horizontal=0;childLayout=treeLayout;horizontalTree=1;resizable=0;containerType=tree;fontFamily=宋体;" vertex="1" parent="1">
          <mxGeometry x="20" y="330" width="980" height="200" as="geometry" />
        </mxCell>
        <mxCell id="lZX6NhO8SXO_a_IkvFC9-9" value="&lt;span style=&quot;font-size:10.5pt;mso-bidi-font-size:&lt;br/&gt;11.0pt;font-family:&amp;quot;Calibri&amp;quot;,sans-serif;mso-fareast-font-family:宋体;mso-bidi-font-family:&lt;br/&gt;Arial;mso-ansi-language:EN-US;mso-fareast-language:ZH-CN;mso-bidi-language:&lt;br/&gt;AR-SA&quot; lang=&quot;EN-US&quot;&gt;shim.ChaincodeStubInterface&lt;/span&gt;" style="whiteSpace=wrap;html=1;" vertex="1" parent="lZX6NhO8SXO_a_IkvFC9-8">
          <mxGeometry x="40" y="60" width="170" height="40" as="geometry" />
        </mxCell>
        <mxCell id="lZX6NhO8SXO_a_IkvFC9-10" value="&lt;span style=&quot;font-size:10.5pt;mso-bidi-font-size:&lt;br/&gt;11.0pt;font-family:&amp;quot;Calibri&amp;quot;,sans-serif;mso-fareast-font-family:宋体;mso-bidi-font-family:&lt;br/&gt;Arial;mso-ansi-language:EN-US;mso-fareast-language:ZH-CN;mso-bidi-language:&lt;br/&gt;AR-SA&quot; lang=&quot;EN-US&quot;&gt;Init&lt;/span&gt;" style="whiteSpace=wrap;html=1;" vertex="1" parent="lZX6NhO8SXO_a_IkvFC9-8">
          <mxGeometry x="260" y="20" width="100" height="40" as="geometry" />
        </mxCell>
        <mxCell id="lZX6NhO8SXO_a_IkvFC9-11" value="" style="edgeStyle=elbowEdgeStyle;elbow=horizontal;html=1;rounded=0;" edge="1" parent="lZX6NhO8SXO_a_IkvFC9-8" source="lZX6NhO8SXO_a_IkvFC9-9" target="lZX6NhO8SXO_a_IkvFC9-10">
          <mxGeometry relative="1" as="geometry" />
        </mxCell>
        <mxCell id="lZX6NhO8SXO_a_IkvFC9-12" value="&lt;span style=&quot;font-size:10.5pt;mso-bidi-font-size:&lt;br/&gt;11.0pt;font-family:&amp;quot;Calibri&amp;quot;,sans-serif;mso-fareast-font-family:宋体;mso-bidi-font-family:&lt;br/&gt;Arial;mso-ansi-language:EN-US;mso-fareast-language:ZH-CN;mso-bidi-language:&lt;br/&gt;AR-SA&quot; lang=&quot;EN-US&quot;&gt;Invoke&lt;/span&gt;" style="whiteSpace=wrap;html=1;" vertex="1" parent="lZX6NhO8SXO_a_IkvFC9-8">
          <mxGeometry x="260" y="100" width="100" height="40" as="geometry" />
        </mxCell>
        <mxCell id="lZX6NhO8SXO_a_IkvFC9-13" value="" style="edgeStyle=elbowEdgeStyle;elbow=horizontal;html=1;rounded=0;" edge="1" parent="lZX6NhO8SXO_a_IkvFC9-8" source="lZX6NhO8SXO_a_IkvFC9-9" target="lZX6NhO8SXO_a_IkvFC9-12">
          <mxGeometry relative="1" as="geometry" />
        </mxCell>
        <mxCell id="lZX6NhO8SXO_a_IkvFC9-17" value="" style="edgeStyle=elbowEdgeStyle;elbow=horizontal;html=1;rounded=0;" edge="1" target="lZX6NhO8SXO_a_IkvFC9-18" source="lZX6NhO8SXO_a_IkvFC9-12" parent="lZX6NhO8SXO_a_IkvFC9-8">
          <mxGeometry relative="1" as="geometry">
            <mxPoint x="270" y="270" as="sourcePoint" />
          </mxGeometry>
        </mxCell>
        <mxCell id="lZX6NhO8SXO_a_IkvFC9-18" value="&lt;span style=&quot;font-size:10.5pt;mso-bidi-font-size:11.0pt;&lt;br/&gt;font-family:宋体;mso-ascii-font-family:Calibri;mso-hansi-font-family:Calibri;&lt;br/&gt;mso-bidi-font-family:Arial;mso-ansi-language:EN-US;mso-fareast-language:ZH-CN;&lt;br/&gt;mso-bidi-language:AR-SA&quot;&gt;参数读取类&lt;/span&gt;&lt;span style=&quot;font-size:10.5pt;&lt;br/&gt;mso-bidi-font-size:11.0pt;font-family:&amp;quot;Calibri&amp;quot;,sans-serif;mso-fareast-font-family:&lt;br/&gt;宋体;mso-bidi-font-family:Arial;mso-ansi-language:EN-US;mso-fareast-language:&lt;br/&gt;ZH-CN;mso-bidi-language:AR-SA&quot; lang=&quot;EN-US&quot;&gt;API&lt;/span&gt;" style="whiteSpace=wrap;html=1;" vertex="1" parent="lZX6NhO8SXO_a_IkvFC9-8">
          <mxGeometry x="410" y="100" width="100" height="40" as="geometry" />
        </mxCell>
        <mxCell id="lZX6NhO8SXO_a_IkvFC9-19" value="" style="edgeStyle=elbowEdgeStyle;elbow=horizontal;html=1;rounded=0;" edge="1" target="lZX6NhO8SXO_a_IkvFC9-20" source="lZX6NhO8SXO_a_IkvFC9-18" parent="lZX6NhO8SXO_a_IkvFC9-8">
          <mxGeometry relative="1" as="geometry">
            <mxPoint x="420" y="310" as="sourcePoint" />
          </mxGeometry>
        </mxCell>
        <mxCell id="lZX6NhO8SXO_a_IkvFC9-20" value="&lt;span style=&quot;font-size:10.5pt;mso-bidi-font-size:&lt;br/&gt;11.0pt;font-family:&amp;quot;Calibri&amp;quot;,sans-serif;mso-fareast-font-family:宋体;mso-bidi-font-family:&lt;br/&gt;Arial;mso-ansi-language:EN-US;mso-fareast-language:ZH-CN;mso-bidi-language:&lt;br/&gt;AR-SA&quot; lang=&quot;EN-US&quot;&gt;GetFunctionAndParameters&lt;/span&gt;" style="whiteSpace=wrap;html=1;" vertex="1" parent="lZX6NhO8SXO_a_IkvFC9-8">
          <mxGeometry x="560" y="100" width="160" height="40" as="geometry" />
        </mxCell>
        <mxCell id="lZX6NhO8SXO_a_IkvFC9-21" value="" style="edgeStyle=elbowEdgeStyle;elbow=horizontal;html=1;rounded=0;" edge="1" target="lZX6NhO8SXO_a_IkvFC9-22" source="lZX6NhO8SXO_a_IkvFC9-20" parent="lZX6NhO8SXO_a_IkvFC9-8">
          <mxGeometry relative="1" as="geometry">
            <mxPoint x="530" y="450" as="sourcePoint" />
          </mxGeometry>
        </mxCell>
        <mxCell id="lZX6NhO8SXO_a_IkvFC9-22" value="&lt;span style=&quot;font-size:10.5pt;mso-bidi-font-size:&lt;br/&gt;11.0pt;font-family:&amp;quot;Calibri&amp;quot;,sans-serif;mso-fareast-font-family:宋体;mso-bidi-font-family:&lt;br/&gt;Arial;mso-ansi-language:EN-US;mso-fareast-language:ZH-CN;mso-bidi-language:&lt;br/&gt;AR-SA&quot; lang=&quot;EN-US&quot;&gt;save：&lt;/span&gt;&lt;span style=&quot;font-size:10.5pt;mso-bidi-font-size:11.0pt;&lt;br/&gt;font-family:宋体;mso-ascii-font-family:Calibri;mso-hansi-font-family:Calibri;&lt;br/&gt;mso-bidi-font-family:Arial;mso-ansi-language:EN-US;mso-fareast-language:ZH-CN;&lt;br/&gt;mso-bidi-language:AR-SA&quot;&gt;调用账本状态交易&lt;/span&gt;&lt;span style=&quot;font-size:10.5pt;&lt;br/&gt;mso-bidi-font-size:11.0pt;font-family:&amp;quot;Calibri&amp;quot;,sans-serif;mso-fareast-font-family:&lt;br/&gt;宋体;mso-bidi-font-family:Arial;mso-ansi-language:EN-US;mso-fareast-language:&lt;br/&gt;ZH-CN;mso-bidi-language:AR-SA&quot; lang=&quot;EN-US&quot;&gt;API&lt;/span&gt;&lt;span style=&quot;font-size:10.5pt;&lt;br/&gt;mso-bidi-font-size:11.0pt;font-family:宋体;mso-ascii-font-family:Calibri;&lt;br/&gt;mso-hansi-font-family:Calibri;mso-bidi-font-family:Arial;mso-ansi-language:&lt;br/&gt;EN-US;mso-fareast-language:ZH-CN;mso-bidi-language:AR-SA&quot;&gt;中的&lt;/span&gt;&lt;span style=&quot;font-size:10.5pt;mso-bidi-font-size:11.0pt;font-family:&amp;quot;Calibri&amp;quot;,sans-serif;&lt;br/&gt;mso-fareast-font-family:宋体;mso-bidi-font-family:Arial;mso-ansi-language:EN-US;&lt;br/&gt;mso-fareast-language:ZH-CN;mso-bidi-language:AR-SA&quot; lang=&quot;EN-US&quot;&gt;PutState&lt;/span&gt;&lt;span style=&quot;font-size:10.5pt;mso-bidi-font-size:11.0pt;font-family:宋体;mso-ascii-font-family:&lt;br/&gt;Calibri;mso-hansi-font-family:Calibri;mso-bidi-font-family:Arial;mso-ansi-language:&lt;br/&gt;EN-US;mso-fareast-language:ZH-CN;mso-bidi-language:AR-SA&quot;&gt;方法，信息上链&lt;/span&gt;" style="whiteSpace=wrap;html=1;" vertex="1" parent="lZX6NhO8SXO_a_IkvFC9-8">
          <mxGeometry x="770" y="58.5" width="180" height="40" as="geometry" />
        </mxCell>
        <mxCell id="lZX6NhO8SXO_a_IkvFC9-23" value="" style="edgeStyle=elbowEdgeStyle;elbow=horizontal;html=1;rounded=0;" edge="1" target="lZX6NhO8SXO_a_IkvFC9-24" source="lZX6NhO8SXO_a_IkvFC9-20" parent="lZX6NhO8SXO_a_IkvFC9-8">
          <mxGeometry relative="1" as="geometry">
            <mxPoint x="530" y="450" as="sourcePoint" />
          </mxGeometry>
        </mxCell>
        <mxCell id="lZX6NhO8SXO_a_IkvFC9-24" value="&lt;span style=&quot;font-size:10.5pt;mso-bidi-font-size:&lt;br/&gt;11.0pt;font-family:&amp;quot;Calibri&amp;quot;,sans-serif;mso-fareast-font-family:宋体;mso-bidi-font-family:&lt;br/&gt;Arial;mso-ansi-language:EN-US;mso-fareast-language:ZH-CN;mso-bidi-language:&lt;br/&gt;AR-SA&quot; lang=&quot;EN-US&quot;&gt;query：&lt;/span&gt;&lt;span style=&quot;font-size:10.5pt;mso-bidi-font-size:11.0pt;&lt;br/&gt;font-family:宋体;mso-ascii-font-family:Calibri;mso-hansi-font-family:Calibri;&lt;br/&gt;mso-bidi-font-family:Arial;mso-ansi-language:EN-US;mso-fareast-language:ZH-CN;&lt;br/&gt;mso-bidi-language:AR-SA&quot;&gt;调用账本交易状态&lt;/span&gt;&lt;span style=&quot;font-size:10.5pt;&lt;br/&gt;mso-bidi-font-size:11.0pt;font-family:&amp;quot;Calibri&amp;quot;,sans-serif;mso-fareast-font-family:&lt;br/&gt;宋体;mso-bidi-font-family:Arial;mso-ansi-language:EN-US;mso-fareast-language:&lt;br/&gt;ZH-CN;mso-bidi-language:AR-SA&quot; lang=&quot;EN-US&quot;&gt;API&lt;/span&gt;&lt;span style=&quot;font-size:10.5pt;&lt;br/&gt;mso-bidi-font-size:11.0pt;font-family:宋体;mso-ascii-font-family:Calibri;&lt;br/&gt;mso-hansi-font-family:Calibri;mso-bidi-font-family:Arial;mso-ansi-language:&lt;br/&gt;EN-US;mso-fareast-language:ZH-CN;mso-bidi-language:AR-SA&quot;&gt;内的&lt;/span&gt;&lt;span style=&quot;font-size:10.5pt;mso-bidi-font-size:11.0pt;font-family:&amp;quot;Calibri&amp;quot;,sans-serif;&lt;br/&gt;mso-fareast-font-family:宋体;mso-bidi-font-family:Arial;mso-ansi-language:EN-US;&lt;br/&gt;mso-fareast-language:ZH-CN;mso-bidi-language:AR-SA&quot; lang=&quot;EN-US&quot;&gt;GetState&lt;/span&gt;&lt;span style=&quot;font-size:10.5pt;mso-bidi-font-size:11.0pt;font-family:宋体;mso-ascii-font-family:&lt;br/&gt;Calibri;mso-hansi-font-family:Calibri;mso-bidi-font-family:Arial;mso-ansi-language:&lt;br/&gt;EN-US;mso-fareast-language:ZH-CN;mso-bidi-language:AR-SA&quot;&gt;方法，查询账本内的信息&lt;/span&gt;" style="whiteSpace=wrap;html=1;" vertex="1" parent="lZX6NhO8SXO_a_IkvFC9-8">
          <mxGeometry x="770" y="140" width="190" height="40" as="geometry" />
        </mxCell>
        <mxCell id="lZX6NhO8SXO_a_IkvFC9-25" value="Fabric SDK" style="swimlane;startSize=20;horizontal=0;childLayout=treeLayout;horizontalTree=1;resizable=0;containerType=tree;fontFamily=宋体;" vertex="1" parent="1">
          <mxGeometry x="20" y="50" width="990" height="280" as="geometry" />
        </mxCell>
        <mxCell id="lZX6NhO8SXO_a_IkvFC9-26" value="两个主类" style="whiteSpace=wrap;html=1;fontFamily=宋体;" vertex="1" parent="lZX6NhO8SXO_a_IkvFC9-25">
          <mxGeometry x="40" y="120" width="100" height="40" as="geometry" />
        </mxCell>
        <mxCell id="lZX6NhO8SXO_a_IkvFC9-27" value="&lt;span style=&quot;font-size:10.5pt;mso-bidi-font-size:&lt;br/&gt;11.0pt;font-family:&amp;quot;Calibri&amp;quot;,sans-serif;mso-fareast-font-family:宋体;mso-bidi-font-family:&lt;br/&gt;Arial;mso-ansi-language:EN-US;mso-fareast-language:ZH-CN;mso-bidi-language:&lt;br/&gt;AR-SA&quot; lang=&quot;EN-US&quot;&gt;HFCAClient&lt;/span&gt;" style="whiteSpace=wrap;html=1;fontFamily=宋体;" vertex="1" parent="lZX6NhO8SXO_a_IkvFC9-25">
          <mxGeometry x="190" y="60" width="100" height="40" as="geometry" />
        </mxCell>
        <mxCell id="lZX6NhO8SXO_a_IkvFC9-28" value="" style="edgeStyle=elbowEdgeStyle;elbow=horizontal;html=1;rounded=0;fontFamily=宋体;" edge="1" parent="lZX6NhO8SXO_a_IkvFC9-25" source="lZX6NhO8SXO_a_IkvFC9-26" target="lZX6NhO8SXO_a_IkvFC9-27">
          <mxGeometry relative="1" as="geometry" />
        </mxCell>
        <mxCell id="lZX6NhO8SXO_a_IkvFC9-29" value="&lt;span style=&quot;font-size:10.5pt;mso-bidi-font-size:&lt;br/&gt;11.0pt;font-family:&amp;quot;Calibri&amp;quot;,sans-serif;mso-fareast-font-family:宋体;mso-bidi-font-family:&lt;br/&gt;Arial;mso-ansi-language:EN-US;mso-fareast-language:ZH-CN;mso-bidi-language:&lt;br/&gt;AR-SA&quot; lang=&quot;EN-US&quot;&gt;HFClient&lt;/span&gt;" style="whiteSpace=wrap;html=1;fontFamily=宋体;" vertex="1" parent="lZX6NhO8SXO_a_IkvFC9-25">
          <mxGeometry x="190" y="180" width="100" height="40" as="geometry" />
        </mxCell>
        <mxCell id="lZX6NhO8SXO_a_IkvFC9-30" value="" style="edgeStyle=elbowEdgeStyle;elbow=horizontal;html=1;rounded=0;fontFamily=宋体;" edge="1" parent="lZX6NhO8SXO_a_IkvFC9-25" source="lZX6NhO8SXO_a_IkvFC9-26" target="lZX6NhO8SXO_a_IkvFC9-29">
          <mxGeometry relative="1" as="geometry" />
        </mxCell>
        <mxCell id="lZX6NhO8SXO_a_IkvFC9-31" value="" style="edgeStyle=elbowEdgeStyle;elbow=horizontal;html=1;rounded=0;fontFamily=宋体;" edge="1" target="lZX6NhO8SXO_a_IkvFC9-32" source="lZX6NhO8SXO_a_IkvFC9-27" parent="lZX6NhO8SXO_a_IkvFC9-25">
          <mxGeometry relative="1" as="geometry">
            <mxPoint x="160" y="214" as="sourcePoint" />
          </mxGeometry>
        </mxCell>
        <mxCell id="lZX6NhO8SXO_a_IkvFC9-32" value="&lt;span style=&quot;font-size:10.5pt;mso-bidi-font-size:&lt;br/&gt;11.0pt;font-family:&amp;quot;Calibri&amp;quot;,sans-serif;mso-fareast-font-family:宋体;mso-bidi-font-family:&lt;br/&gt;Arial;mso-ansi-language:EN-US;mso-fareast-language:ZH-CN;mso-bidi-language:&lt;br/&gt;AR-SA&quot; lang=&quot;EN-US&quot;&gt;register：注册用户&lt;/span&gt;" style="whiteSpace=wrap;html=1;fontFamily=宋体;" vertex="1" parent="lZX6NhO8SXO_a_IkvFC9-25">
          <mxGeometry x="340" y="20" width="120" height="40" as="geometry" />
        </mxCell>
        <mxCell id="lZX6NhO8SXO_a_IkvFC9-33" value="" style="edgeStyle=elbowEdgeStyle;elbow=horizontal;html=1;rounded=0;fontFamily=宋体;" edge="1" target="lZX6NhO8SXO_a_IkvFC9-34" source="lZX6NhO8SXO_a_IkvFC9-27" parent="lZX6NhO8SXO_a_IkvFC9-25">
          <mxGeometry relative="1" as="geometry">
            <mxPoint x="160" y="214" as="sourcePoint" />
          </mxGeometry>
        </mxCell>
        <mxCell id="lZX6NhO8SXO_a_IkvFC9-34" value="&lt;span style=&quot;font-size:10.5pt;mso-bidi-font-size:&lt;br/&gt;11.0pt;font-family:&amp;quot;Calibri&amp;quot;,sans-serif;mso-fareast-font-family:宋体;mso-bidi-font-family:&lt;br/&gt;Arial;mso-ansi-language:EN-US;mso-fareast-language:ZH-CN;mso-bidi-language:&lt;br/&gt;AR-SA&quot; lang=&quot;EN-US&quot;&gt;enroll：用户登记，返回私钥及证书&lt;/span&gt;" style="whiteSpace=wrap;html=1;fontFamily=宋体;" vertex="1" parent="lZX6NhO8SXO_a_IkvFC9-25">
          <mxGeometry x="340" y="100" width="120" height="40" as="geometry" />
        </mxCell>
        <mxCell id="lZX6NhO8SXO_a_IkvFC9-35" value="" style="edgeStyle=elbowEdgeStyle;elbow=horizontal;html=1;rounded=0;fontFamily=宋体;" edge="1" target="lZX6NhO8SXO_a_IkvFC9-36" source="lZX6NhO8SXO_a_IkvFC9-29" parent="lZX6NhO8SXO_a_IkvFC9-25">
          <mxGeometry relative="1" as="geometry">
            <mxPoint x="160" y="238.00000000000003" as="sourcePoint" />
          </mxGeometry>
        </mxCell>
        <mxCell id="lZX6NhO8SXO_a_IkvFC9-36" value="&lt;span lang=&quot;EN-US&quot;&gt;创建实例&lt;/span&gt;" style="whiteSpace=wrap;html=1;fontFamily=宋体;" vertex="1" parent="lZX6NhO8SXO_a_IkvFC9-25">
          <mxGeometry x="340" y="180" width="120" height="40" as="geometry" />
        </mxCell>
        <mxCell id="lZX6NhO8SXO_a_IkvFC9-37" value="" style="edgeStyle=elbowEdgeStyle;elbow=horizontal;html=1;rounded=0;fontFamily=宋体;" edge="1" target="lZX6NhO8SXO_a_IkvFC9-38" source="lZX6NhO8SXO_a_IkvFC9-36" parent="lZX6NhO8SXO_a_IkvFC9-25">
          <mxGeometry relative="1" as="geometry">
            <mxPoint x="310" y="290" as="sourcePoint" />
          </mxGeometry>
        </mxCell>
        <mxCell id="lZX6NhO8SXO_a_IkvFC9-38" value="&lt;span lang=&quot;EN-US&quot;&gt;创建通道实例&lt;/span&gt;" style="whiteSpace=wrap;html=1;fontFamily=宋体;" vertex="1" parent="lZX6NhO8SXO_a_IkvFC9-25">
          <mxGeometry x="510" y="180" width="120" height="40" as="geometry" />
        </mxCell>
        <mxCell id="lZX6NhO8SXO_a_IkvFC9-39" value="" style="edgeStyle=elbowEdgeStyle;elbow=horizontal;html=1;rounded=0;fontFamily=宋体;" edge="1" target="lZX6NhO8SXO_a_IkvFC9-40" source="lZX6NhO8SXO_a_IkvFC9-38" parent="lZX6NhO8SXO_a_IkvFC9-25">
          <mxGeometry relative="1" as="geometry">
            <mxPoint x="480" y="290" as="sourcePoint" />
          </mxGeometry>
        </mxCell>
        <mxCell id="lZX6NhO8SXO_a_IkvFC9-40" value="&lt;span lang=&quot;EN-US&quot;&gt;安装合约&lt;/span&gt;" style="whiteSpace=wrap;html=1;fontFamily=宋体;" vertex="1" parent="lZX6NhO8SXO_a_IkvFC9-25">
          <mxGeometry x="680" y="180" width="120" height="40" as="geometry" />
        </mxCell>
        <mxCell id="lZX6NhO8SXO_a_IkvFC9-41" value="" style="edgeStyle=elbowEdgeStyle;elbow=horizontal;html=1;rounded=0;fontFamily=宋体;" edge="1" target="lZX6NhO8SXO_a_IkvFC9-42" source="lZX6NhO8SXO_a_IkvFC9-40" parent="lZX6NhO8SXO_a_IkvFC9-25">
          <mxGeometry relative="1" as="geometry">
            <mxPoint x="650" y="290" as="sourcePoint" />
          </mxGeometry>
        </mxCell>
        <mxCell id="lZX6NhO8SXO_a_IkvFC9-42" value="&lt;span lang=&quot;EN-US&quot;&gt;invoke：调用合约&lt;/span&gt;" style="whiteSpace=wrap;html=1;fontFamily=宋体;" vertex="1" parent="lZX6NhO8SXO_a_IkvFC9-25">
          <mxGeometry x="850" y="140" width="120" height="40" as="geometry" />
        </mxCell>
        <mxCell id="lZX6NhO8SXO_a_IkvFC9-43" value="" style="edgeStyle=elbowEdgeStyle;elbow=horizontal;html=1;rounded=0;fontFamily=宋体;" edge="1" target="lZX6NhO8SXO_a_IkvFC9-44" source="lZX6NhO8SXO_a_IkvFC9-40" parent="lZX6NhO8SXO_a_IkvFC9-25">
          <mxGeometry relative="1" as="geometry">
            <mxPoint x="650" y="290" as="sourcePoint" />
          </mxGeometry>
        </mxCell>
        <mxCell id="lZX6NhO8SXO_a_IkvFC9-44" value="&lt;span lang=&quot;EN-US&quot;&gt;queryChaincode：查询合约&lt;/span&gt;" style="whiteSpace=wrap;html=1;fontFamily=宋体;" vertex="1" parent="lZX6NhO8SXO_a_IkvFC9-25">
          <mxGeometry x="850" y="220" width="120" height="40" as="geometry" />
        </mxCell>
        <mxCell id="lZX6NhO8SXO_a_IkvFC9-48" value="&lt;span lang=&quot;EN-US&quot;&gt;newTransactionProposalRequest&lt;/span&gt;" style="whiteSpace=wrap;html=1;fontFamily=宋体;" vertex="1" parent="lZX6NhO8SXO_a_IkvFC9-25">
          <mxGeometry x="750" y="50" width="210" height="40" as="geometry" />
        </mxCell>
        <mxCell id="lZX6NhO8SXO_a_IkvFC9-50" value="" style="endArrow=classic;html=1;rounded=0;fontFamily=宋体;exitX=0.5;exitY=0;exitDx=0;exitDy=0;entryX=0.75;entryY=1;entryDx=0;entryDy=0;" edge="1" parent="lZX6NhO8SXO_a_IkvFC9-25" source="lZX6NhO8SXO_a_IkvFC9-42" target="lZX6NhO8SXO_a_IkvFC9-48">
          <mxGeometry width="50" height="50" relative="1" as="geometry">
            <mxPoint x="770" y="290" as="sourcePoint" />
            <mxPoint x="930" y="100" as="targetPoint" />
          </mxGeometry>
        </mxCell>
        <mxCell id="lZX6NhO8SXO_a_IkvFC9-52" value="传入chaincode信息" style="text;html=1;align=center;verticalAlign=middle;resizable=0;points=[];autosize=1;strokeColor=none;fillColor=none;fontFamily=宋体;" vertex="1" parent="1">
          <mxGeometry x="810" y="160" width="120" height="20" as="geometry" />
        </mxCell>
        <mxCell id="lZX6NhO8SXO_a_IkvFC9-113" style="edgeStyle=orthogonalEdgeStyle;rounded=0;orthogonalLoop=1;jettySize=auto;html=1;exitX=1;exitY=0.5;exitDx=0;exitDy=0;entryX=0;entryY=0.5;entryDx=0;entryDy=0;entryPerimeter=0;fontFamily=宋体;" edge="1" parent="1" source="lZX6NhO8SXO_a_IkvFC9-90" target="lZX6NhO8SXO_a_IkvFC9-110">
          <mxGeometry relative="1" as="geometry" />
        </mxCell>
        <mxCell id="lZX6NhO8SXO_a_IkvFC9-90" value="Redis" style="swimlane;startSize=20;horizontal=0;childLayout=treeLayout;horizontalTree=1;resizable=0;containerType=tree;fontFamily=宋体;" vertex="1" parent="1">
          <mxGeometry x="480" y="-270" width="310" height="320" as="geometry" />
        </mxCell>
        <mxCell id="lZX6NhO8SXO_a_IkvFC9-91" value="RedisUtils" style="whiteSpace=wrap;html=1;fontFamily=宋体;" vertex="1" parent="lZX6NhO8SXO_a_IkvFC9-90">
          <mxGeometry x="40" y="140" width="100" height="40" as="geometry" />
        </mxCell>
        <mxCell id="lZX6NhO8SXO_a_IkvFC9-92" value="读取缓存：get" style="whiteSpace=wrap;html=1;fontFamily=宋体;" vertex="1" parent="lZX6NhO8SXO_a_IkvFC9-90">
          <mxGeometry x="190" y="20" width="100" height="40" as="geometry" />
        </mxCell>
        <mxCell id="lZX6NhO8SXO_a_IkvFC9-93" value="" style="edgeStyle=elbowEdgeStyle;elbow=horizontal;html=1;rounded=0;fontFamily=宋体;" edge="1" parent="lZX6NhO8SXO_a_IkvFC9-90" source="lZX6NhO8SXO_a_IkvFC9-91" target="lZX6NhO8SXO_a_IkvFC9-92">
          <mxGeometry relative="1" as="geometry" />
        </mxCell>
        <mxCell id="lZX6NhO8SXO_a_IkvFC9-94" value="写入缓存：set" style="whiteSpace=wrap;html=1;fontFamily=宋体;" vertex="1" parent="lZX6NhO8SXO_a_IkvFC9-90">
          <mxGeometry x="190" y="100" width="100" height="40" as="geometry" />
        </mxCell>
        <mxCell id="lZX6NhO8SXO_a_IkvFC9-95" value="" style="edgeStyle=elbowEdgeStyle;elbow=horizontal;html=1;rounded=0;fontFamily=宋体;" edge="1" parent="lZX6NhO8SXO_a_IkvFC9-90" source="lZX6NhO8SXO_a_IkvFC9-91" target="lZX6NhO8SXO_a_IkvFC9-94">
          <mxGeometry relative="1" as="geometry" />
        </mxCell>
        <mxCell id="lZX6NhO8SXO_a_IkvFC9-96" value="" style="edgeStyle=orthogonalEdgeStyle;rounded=0;orthogonalLoop=1;jettySize=auto;html=1;" edge="1" source="lZX6NhO8SXO_a_IkvFC9-91" target="lZX6NhO8SXO_a_IkvFC9-97" parent="lZX6NhO8SXO_a_IkvFC9-90">
          <mxGeometry relative="1" as="geometry" />
        </mxCell>
        <mxCell id="lZX6NhO8SXO_a_IkvFC9-97" value="更新缓存：getAndSet" style="whiteSpace=wrap;html=1;fontFamily=宋体;" vertex="1" parent="lZX6NhO8SXO_a_IkvFC9-90">
          <mxGeometry x="190" y="180" width="100" height="40" as="geometry" />
        </mxCell>
        <mxCell id="lZX6NhO8SXO_a_IkvFC9-98" value="" style="edgeStyle=orthogonalEdgeStyle;rounded=0;orthogonalLoop=1;jettySize=auto;html=1;entryX=0;entryY=0.5;entryDx=0;entryDy=0;" edge="1" source="lZX6NhO8SXO_a_IkvFC9-91" target="lZX6NhO8SXO_a_IkvFC9-99" parent="lZX6NhO8SXO_a_IkvFC9-90">
          <mxGeometry relative="1" as="geometry" />
        </mxCell>
        <mxCell id="lZX6NhO8SXO_a_IkvFC9-99" value="删除缓存：delete" style="whiteSpace=wrap;html=1;fontFamily=宋体;" vertex="1" parent="lZX6NhO8SXO_a_IkvFC9-90">
          <mxGeometry x="190" y="260" width="100" height="40" as="geometry" />
        </mxCell>
        <mxCell id="lZX6NhO8SXO_a_IkvFC9-111" style="edgeStyle=orthogonalEdgeStyle;rounded=0;orthogonalLoop=1;jettySize=auto;html=1;exitX=1;exitY=0.5;exitDx=0;exitDy=0;entryX=0;entryY=0.625;entryDx=0;entryDy=0;entryPerimeter=0;fontFamily=宋体;" edge="1" parent="1" source="lZX6NhO8SXO_a_IkvFC9-100" target="lZX6NhO8SXO_a_IkvFC9-90">
          <mxGeometry relative="1" as="geometry" />
        </mxCell>
        <mxCell id="lZX6NhO8SXO_a_IkvFC9-137" style="edgeStyle=orthogonalEdgeStyle;rounded=0;orthogonalLoop=1;jettySize=auto;html=1;fontFamily=宋体;entryX=0;entryY=0.5;entryDx=0;entryDy=0;" edge="1" parent="1" source="lZX6NhO8SXO_a_IkvFC9-100" target="lZX6NhO8SXO_a_IkvFC9-125">
          <mxGeometry relative="1" as="geometry">
            <mxPoint x="-30" y="-270" as="targetPoint" />
            <Array as="points">
              <mxPoint x="-50" y="-70" />
              <mxPoint x="-50" y="-270" />
            </Array>
          </mxGeometry>
        </mxCell>
        <mxCell id="lZX6NhO8SXO_a_IkvFC9-138" value="发送给前端" style="edgeLabel;html=1;align=center;verticalAlign=middle;resizable=0;points=[];fontFamily=宋体;" vertex="1" connectable="0" parent="lZX6NhO8SXO_a_IkvFC9-137">
          <mxGeometry x="0.1208" y="1" relative="1" as="geometry">
            <mxPoint y="-1" as="offset" />
          </mxGeometry>
        </mxCell>
        <mxCell id="lZX6NhO8SXO_a_IkvFC9-100" value="Web Controller" style="swimlane;startSize=20;horizontal=0;childLayout=treeLayout;horizontalTree=1;resizable=0;containerType=tree;fontFamily=宋体;" vertex="1" parent="1">
          <mxGeometry x="20" y="-190" width="370" height="240" as="geometry" />
        </mxCell>
        <mxCell id="lZX6NhO8SXO_a_IkvFC9-101" value="controller" style="whiteSpace=wrap;html=1;fontFamily=宋体;" vertex="1" parent="lZX6NhO8SXO_a_IkvFC9-100">
          <mxGeometry x="40" y="100" width="100" height="40" as="geometry" />
        </mxCell>
        <mxCell id="lZX6NhO8SXO_a_IkvFC9-102" value="查询信息：BrowseXXXInfoController" style="whiteSpace=wrap;html=1;fontFamily=宋体;" vertex="1" parent="lZX6NhO8SXO_a_IkvFC9-100">
          <mxGeometry x="190" y="20" width="160" height="40" as="geometry" />
        </mxCell>
        <mxCell id="lZX6NhO8SXO_a_IkvFC9-103" value="" style="edgeStyle=elbowEdgeStyle;elbow=horizontal;html=1;rounded=0;fontFamily=宋体;" edge="1" parent="lZX6NhO8SXO_a_IkvFC9-100" source="lZX6NhO8SXO_a_IkvFC9-101" target="lZX6NhO8SXO_a_IkvFC9-102">
          <mxGeometry relative="1" as="geometry">
            <Array as="points">
              <mxPoint x="170" y="80" />
            </Array>
          </mxGeometry>
        </mxCell>
        <mxCell id="lZX6NhO8SXO_a_IkvFC9-104" value="插入信息：InsertXXXInfoController" style="whiteSpace=wrap;html=1;fontFamily=宋体;" vertex="1" parent="lZX6NhO8SXO_a_IkvFC9-100">
          <mxGeometry x="190" y="100" width="160" height="40" as="geometry" />
        </mxCell>
        <mxCell id="lZX6NhO8SXO_a_IkvFC9-105" value="" style="edgeStyle=elbowEdgeStyle;elbow=horizontal;html=1;rounded=0;fontFamily=宋体;" edge="1" parent="lZX6NhO8SXO_a_IkvFC9-100" source="lZX6NhO8SXO_a_IkvFC9-101" target="lZX6NhO8SXO_a_IkvFC9-104">
          <mxGeometry relative="1" as="geometry" />
        </mxCell>
        <mxCell id="lZX6NhO8SXO_a_IkvFC9-108" value="" style="edgeStyle=orthogonalEdgeStyle;rounded=0;orthogonalLoop=1;jettySize=auto;html=1;" edge="1" source="lZX6NhO8SXO_a_IkvFC9-101" target="lZX6NhO8SXO_a_IkvFC9-109" parent="lZX6NhO8SXO_a_IkvFC9-100">
          <mxGeometry relative="1" as="geometry">
            <Array as="points">
              <mxPoint x="170" y="120" />
              <mxPoint x="170" y="200" />
            </Array>
          </mxGeometry>
        </mxCell>
        <mxCell id="lZX6NhO8SXO_a_IkvFC9-109" value="插入信息：UpdateXXXInfoController" style="whiteSpace=wrap;html=1;fontFamily=宋体;" vertex="1" parent="lZX6NhO8SXO_a_IkvFC9-100">
          <mxGeometry x="190" y="180" width="160" height="40" as="geometry" />
        </mxCell>
        <mxCell id="lZX6NhO8SXO_a_IkvFC9-114" style="edgeStyle=orthogonalEdgeStyle;rounded=0;orthogonalLoop=1;jettySize=auto;html=1;exitX=0.5;exitY=1;exitDx=0;exitDy=0;exitPerimeter=0;fontFamily=宋体;" edge="1" parent="1" source="lZX6NhO8SXO_a_IkvFC9-110">
          <mxGeometry relative="1" as="geometry">
            <mxPoint x="900" y="50" as="targetPoint" />
          </mxGeometry>
        </mxCell>
        <mxCell id="lZX6NhO8SXO_a_IkvFC9-115" value="否" style="edgeLabel;html=1;align=center;verticalAlign=middle;resizable=0;points=[];fontFamily=宋体;" vertex="1" connectable="0" parent="lZX6NhO8SXO_a_IkvFC9-114">
          <mxGeometry x="-0.2278" y="1" relative="1" as="geometry">
            <mxPoint as="offset" />
          </mxGeometry>
        </mxCell>
        <mxCell id="lZX6NhO8SXO_a_IkvFC9-116" style="edgeStyle=orthogonalEdgeStyle;rounded=0;orthogonalLoop=1;jettySize=auto;html=1;exitX=0.5;exitY=0;exitDx=0;exitDy=0;exitPerimeter=0;fontFamily=宋体;entryX=1;entryY=0.25;entryDx=0;entryDy=0;" edge="1" parent="1" source="lZX6NhO8SXO_a_IkvFC9-110" target="lZX6NhO8SXO_a_IkvFC9-100">
          <mxGeometry relative="1" as="geometry">
            <mxPoint x="264.39996337890625" y="-440" as="targetPoint" />
            <Array as="points">
              <mxPoint x="900" y="-330" />
              <mxPoint x="440" y="-330" />
              <mxPoint x="440" y="-130" />
            </Array>
          </mxGeometry>
        </mxCell>
        <mxCell id="lZX6NhO8SXO_a_IkvFC9-133" value="是" style="edgeLabel;html=1;align=center;verticalAlign=middle;resizable=0;points=[];fontFamily=宋体;" vertex="1" connectable="0" parent="lZX6NhO8SXO_a_IkvFC9-116">
          <mxGeometry x="-0.8301" y="1" relative="1" as="geometry">
            <mxPoint as="offset" />
          </mxGeometry>
        </mxCell>
        <mxCell id="lZX6NhO8SXO_a_IkvFC9-136" value="返回查询信息" style="edgeLabel;html=1;align=center;verticalAlign=middle;resizable=0;points=[];fontFamily=宋体;" vertex="1" connectable="0" parent="lZX6NhO8SXO_a_IkvFC9-116">
          <mxGeometry x="0.8068" y="-1" relative="1" as="geometry">
            <mxPoint y="-1" as="offset" />
          </mxGeometry>
        </mxCell>
        <mxCell id="lZX6NhO8SXO_a_IkvFC9-110" value="Redis内是否存在请求数据？" style="strokeWidth=1;html=1;shape=mxgraph.flowchart.decision;whiteSpace=wrap;fontFamily=宋体;" vertex="1" parent="1">
          <mxGeometry x="850" y="-155" width="100" height="90" as="geometry" />
        </mxCell>
        <mxCell id="lZX6NhO8SXO_a_IkvFC9-112" value="查询Redis" style="text;html=1;align=center;verticalAlign=middle;resizable=0;points=[];autosize=1;strokeColor=none;fillColor=none;fontFamily=宋体;" vertex="1" parent="1">
          <mxGeometry x="405" y="-80" width="70" height="20" as="geometry" />
        </mxCell>
        <mxCell id="lZX6NhO8SXO_a_IkvFC9-125" value="Web 前端界面" style="swimlane;startSize=20;horizontal=0;childLayout=treeLayout;horizontalTree=1;resizable=0;containerType=tree;fontFamily=宋体;strokeWidth=1;" vertex="1" parent="1">
          <mxGeometry x="20" y="-350" width="310" height="160" as="geometry" />
        </mxCell>
        <mxCell id="lZX6NhO8SXO_a_IkvFC9-126" value="web" style="whiteSpace=wrap;html=1;fontFamily=宋体;strokeWidth=1;" vertex="1" parent="lZX6NhO8SXO_a_IkvFC9-125">
          <mxGeometry x="40" y="60" width="100" height="40" as="geometry" />
        </mxCell>
        <mxCell id="lZX6NhO8SXO_a_IkvFC9-127" value="档案信息" style="whiteSpace=wrap;html=1;fontFamily=宋体;strokeWidth=1;" vertex="1" parent="lZX6NhO8SXO_a_IkvFC9-125">
          <mxGeometry x="190" y="20" width="100" height="40" as="geometry" />
        </mxCell>
        <mxCell id="lZX6NhO8SXO_a_IkvFC9-128" value="" style="edgeStyle=elbowEdgeStyle;elbow=horizontal;html=1;rounded=0;fontFamily=宋体;" edge="1" parent="lZX6NhO8SXO_a_IkvFC9-125" source="lZX6NhO8SXO_a_IkvFC9-126" target="lZX6NhO8SXO_a_IkvFC9-127">
          <mxGeometry relative="1" as="geometry" />
        </mxCell>
        <mxCell id="lZX6NhO8SXO_a_IkvFC9-129" value="用户信息" style="whiteSpace=wrap;html=1;fontFamily=宋体;strokeWidth=1;" vertex="1" parent="lZX6NhO8SXO_a_IkvFC9-125">
          <mxGeometry x="190" y="100" width="100" height="40" as="geometry" />
        </mxCell>
        <mxCell id="lZX6NhO8SXO_a_IkvFC9-130" value="" style="edgeStyle=elbowEdgeStyle;elbow=horizontal;html=1;rounded=0;fontFamily=宋体;" edge="1" parent="lZX6NhO8SXO_a_IkvFC9-125" source="lZX6NhO8SXO_a_IkvFC9-126" target="lZX6NhO8SXO_a_IkvFC9-129">
          <mxGeometry relative="1" as="geometry" />
        </mxCell>
      </root>
    </mxGraphModel>
  </diagram>
</mxfile>
